<svg xmlns="http://www.w3.org/2000/svg" viewBox="0 0 512 512" role="img" aria-label="Shamba Sokoni Admin">
  <rect width="512" height="512" rx="116" fill="#12181A"/>
  <!-- rising sun (top-left), dimmed to a muted gold for a "night mode / backend" feel -->
  <g stroke="#B8860B" stroke-width="13" stroke-linecap="round">
    <line x1="150" y1="103" x2="150" y2="79"/>
    <line x1="114" y1="119" x2="97" y2="102"/>
    <line x1="98" y1="155" x2="74" y2="155"/>
    <line x1="114" y1="191" x2="97" y2="208"/>
    <line x1="150" y1="207" x2="150" y2="231"/>
  </g>
  <circle cx="150" cy="155" r="36" fill="#B8860B"/>
  <!-- "S" sprout, same brand mark in a cooler slate-green -->
  <path d="M 348 170 C 250 154 226 216 300 250 C 374 284 350 348 252 332"
        fill="none" stroke="#4C7A5A" stroke-width="50" stroke-linecap="round"/>
  <path d="M 348 170 C 366 116 426 108 448 138 C 420 172 378 184 348 170 Z" fill="#5C8D6A"/>
  <g stroke="#3A5A44" stroke-width="12" stroke-linecap="round" fill="none">
    <path d="M 92 412 Q 256 350 420 412"/>
    <path d="M 128 442 Q 256 392 384 442"/>
  </g>
  <!-- admin/restricted-access badge -->
  <circle cx="388" cy="388" r="82" fill="#1E2A2E" stroke="#F9C802" stroke-width="8"/>
  <g transform="translate(388,388)">
    <rect x="-26" y="-6" width="52" height="42" rx="8" fill="#F9C802"/>
    <path d="M -16 -6 V -22 C -16 -40 16 -40 16 -22 V -6" fill="none" stroke="#F9C802" stroke-width="10"/>
    <circle cx="0" cy="16" r="7" fill="#12181A"/>
  </g>
</svg>
